<?xml version="1.0" encoding="iso-8859-1"?>
<!-- Generator: Adobe Illustrator 19.0.0, SVG Export Plug-In . SVG Version: 6.00 Build 0)  -->
<svg version="1.1" id="Layer_1" xmlns="http://www.w3.org/2000/svg" xmlns:xlink="http://www.w3.org/1999/xlink" x="0px" y="0px"
	 viewBox="0 0 512 512" style="enable-background:new 0 0 512 512;" xml:space="preserve">
<path style="fill:#B87FD9;" d="M488.727,46.545H23.273C10.42,46.545,0,56.965,0,69.818v93.091v279.273
	c0,12.853,10.42,23.273,23.273,23.273H256h232.727c12.853,0,23.273-10.42,23.273-23.273V162.909V69.818
	C512,56.965,501.58,46.545,488.727,46.545z M232.727,418.909H46.545V186.182h186.182V418.909z M465.455,418.909H279.273V186.182
	h186.182V418.909z"/>
<path style="fill:#6E76E5;" d="M23.273,186.182h23.273h186.182h46.545h186.182h23.273c12.853,0,23.273-10.42,23.273-23.273V69.818
	c0-12.853-10.42-23.273-23.273-23.273H23.273C10.42,46.545,0,56.965,0,69.818v93.091C0,175.762,10.42,186.182,23.273,186.182z"/>
<path style="fill:#424EDE;" d="M23.273,46.545C10.42,46.545,0,56.965,0,69.818v93.091c0,12.853,10.42,23.273,23.273,23.273h23.273
	h186.182H256V46.545H23.273z"/>
<path style="fill:#933EC5;" d="M232.727,186.182v232.727H46.545V186.182H23.273C10.42,186.182,0,175.762,0,162.909v279.273
	c0,12.853,10.42,23.273,23.273,23.273H256V186.182H232.727z"/>
<g>
</g>
<g>
</g>
<g>
</g>
<g>
</g>
<g>
</g>
<g>
</g>
<g>
</g>
<g>
</g>
<g>
</g>
<g>
</g>
<g>
</g>
<g>
</g>
<g>
</g>
<g>
</g>
<g>
</g>
</svg>
