<?xml version="1.0" encoding="UTF-8"?><!DOCTYPE svg PUBLIC "-//W3C//DTD SVG 1.1//EN" "http://www.w3.org/Graphics/SVG/1.1/DTD/svg11.dtd"><svg xmlns="http://www.w3.org/2000/svg" xmlns:xlink="http://www.w3.org/1999/xlink" version="1.1" x="0px" y="0px" viewBox="0 0 64 64" xml:space="preserve"><g id="object"><path fill="#399BB9" d="M55 53H9V41H3v20h58V41h-6z"/><path fill="#F15439" d="M46 35h-7V23H25v12h-7l14 14z"/><path fill="#FFF" d="M25 11h14v8H25z"/><path fill="#FFF" d="M25 3h14v4H25z"/><path d="M62 62H2V40h8v12h44V40h8v22zM4 60h56V42h-4v12H8V42H4v18z"/><path d="M32 50.414L15.586 34H24V22h16v12h8.414L32 50.414zM20.414 36L32 47.586 43.586 36H38V24H26v12h-5.586z"/><path d="M40 20H24V10h16v10zm-14-2h12v-6H26v6z"/><path d="M40 8H24V2h16v6zM26 6h12V4H26v2z"/></g><metadata><rdf:RDF xmlns:rdf="http://www.w3.org/1999/02/22-rdf-syntax-ns#" xmlns:rdfs="http://www.w3.org/2000/01/rdf-schema#" xmlns:dc="http://purl.org/dc/elements/1.1/"><rdf:Description about="https://iconscout.com/legal#licenses" dc:title="email-internet-connection-network-computer-arrow-download" dc:description="email-internet-connection-network-computer-arrow-download" dc:publisher="Iconscout" dc:date="2018-01-27" dc:format="image/svg+xml" dc:language="en"><dc:creator><rdf:Bag><rdf:li>Petai Jantrapoon</rdf:li></rdf:Bag></dc:creator></rdf:Description></rdf:RDF></metadata></svg>