<?xml version="1.0" encoding="iso-8859-1"?>
<!-- Generator: Adobe Illustrator 19.0.0, SVG Export Plug-In . SVG Version: 6.00 Build 0)  -->
<svg version="1.1" id="Layer_1" xmlns="http://www.w3.org/2000/svg" xmlns:xlink="http://www.w3.org/1999/xlink" x="0px" y="0px"
	 viewBox="0 0 512.001 512.001" style="enable-background:new 0 0 512.001 512.001;" xml:space="preserve">
<path style="fill:#EEBF00;" d="M488.728,23.273H302.546c-12.853,0-23.273,10.42-23.273,23.273v23.273H116.364
	c-12.853,0-23.273,10.42-23.273,23.273v69.818h23.273h23.273h256c10.017,0,18.911,6.409,22.078,15.914l47.74,143.219l23.273,69.818
	l22.078,66.236c0.849,2.546,1.221,5.182,1.173,7.796c0.002-0.147,0.022-0.289,0.022-0.438V46.546
	C512.001,33.693,501.581,23.273,488.728,23.273z"/>
<path style="fill:#F2D23D;" d="M488.728,391.86l-23.273-69.818l-47.74-143.219c-3.167-9.505-12.061-15.914-22.078-15.914h-256
	h-23.273H93.091H23.273c-7.48,0-14.507,3.596-18.88,9.664s-5.564,13.869-3.199,20.967l93.091,279.273
	c3.17,9.505,12.063,15.914,22.08,15.914h372.364c0.886,0,1.758-0.061,2.621-0.157c0.231-0.026,0.456-0.071,0.686-0.104
	c0.638-0.092,1.272-0.2,1.897-0.343c0.248-0.057,0.49-0.126,0.735-0.189c0.605-0.16,1.199-0.34,1.786-0.546
	c0.233-0.082,0.464-0.164,0.694-0.254c0.605-0.234,1.196-0.498,1.778-0.782c0.188-0.093,0.382-0.175,0.566-0.273
	c0.737-0.385,1.455-0.801,2.146-1.261c0.019-0.011,0.036-0.022,0.053-0.033c0.701-0.47,1.375-0.988,2.023-1.536
	c0.194-0.161,0.372-0.34,0.559-0.507c0.442-0.397,0.873-0.808,1.286-1.24c0.206-0.216,0.406-0.439,0.604-0.664
	c0.388-0.439,0.76-0.897,1.116-1.367c0.105-0.14,0.228-0.264,0.332-0.406c0.056-0.078,0.099-0.163,0.154-0.242
	c0.433-0.618,0.836-1.251,1.204-1.901c0.048-0.085,0.104-0.164,0.154-0.251c0.424-0.771,0.801-1.562,1.131-2.369
	c0.053-0.127,0.093-0.262,0.144-0.391c0.258-0.664,0.487-1.337,0.684-2.02c0.07-0.24,0.127-0.486,0.188-0.729
	c0.147-0.579,0.273-1.162,0.372-1.749c0.051-0.296,0.098-0.593,0.137-0.892c0.073-0.543,0.118-1.089,0.152-1.635
	c0.022-0.329,0.045-0.656,0.051-0.988c0.048-2.614-0.324-5.25-1.173-7.796L488.728,391.86z"/>
<path style="fill:#E69629;" d="M491.348,488.571c-0.863,0.096-1.733,0.157-2.621,0.157
	C489.611,488.728,490.483,488.669,491.348,488.571z"/>
<g>
</g>
<g>
</g>
<g>
</g>
<g>
</g>
<g>
</g>
<g>
</g>
<g>
</g>
<g>
</g>
<g>
</g>
<g>
</g>
<g>
</g>
<g>
</g>
<g>
</g>
<g>
</g>
<g>
</g>
</svg>
