<?xml version="1.0" encoding="iso-8859-1"?>
<!-- Generator: Adobe Illustrator 19.0.0, SVG Export Plug-In . SVG Version: 6.00 Build 0)  -->
<svg version="1.1" id="Layer_1" xmlns="http://www.w3.org/2000/svg" xmlns:xlink="http://www.w3.org/1999/xlink" x="0px" y="0px"
	 viewBox="0 0 512 512" style="enable-background:new 0 0 512 512;" xml:space="preserve">
<path style="fill:#00E7F0;" d="M14.367,370.592c2.878,1.193,5.904,1.772,8.901,1.772c6.056,0,12.009-2.365,16.46-6.817
	l93.091-93.091c9.089-9.089,9.089-23.824,0-32.912l-93.091-93.091c-6.654-6.658-16.666-8.647-25.363-5.046
	C5.669,145.009,0,153.496,0,162.909v186.182C0,358.504,5.669,366.991,14.367,370.592z"/>
<g>
	<path style="fill:#424EDE;" d="M23.273,465.455h465.455c12.853,0,23.273-10.42,23.273-23.273c0-12.853-10.42-23.273-23.273-23.273
		H23.273C10.42,418.909,0,429.329,0,442.182C0,455.035,10.42,465.455,23.273,465.455z"/>
	<path style="fill:#424EDE;" d="M488.727,325.818H256c-12.853,0-23.273,10.42-23.273,23.273c0,12.853,10.42,23.273,23.273,23.273
		h232.727c12.853,0,23.273-10.42,23.273-23.273C512,336.238,501.58,325.818,488.727,325.818z"/>
	<path style="fill:#424EDE;" d="M488.727,232.727H256c-12.853,0-23.273,10.42-23.273,23.273c0,12.853,10.42,23.273,23.273,23.273
		h232.727C501.58,279.273,512,268.853,512,256C512,243.147,501.58,232.727,488.727,232.727z"/>
	<path style="fill:#424EDE;" d="M23.273,93.091h465.455c12.853,0,23.273-10.42,23.273-23.273s-10.42-23.273-23.273-23.273H23.273
		C10.42,46.545,0,56.965,0,69.818S10.42,93.091,23.273,93.091z"/>
	<path style="fill:#424EDE;" d="M488.727,139.636H256c-12.853,0-23.273,10.42-23.273,23.273c0,12.853,10.42,23.273,23.273,23.273
		h232.727c12.853,0,23.273-10.42,23.273-23.273C512,150.056,501.58,139.636,488.727,139.636z"/>
</g>
<path style="fill:#00D7DF;" d="M132.819,239.545l-93.091-93.091c-6.654-6.658-16.666-8.647-25.363-5.046S0,153.496,0,162.909V256
	h139.636C139.636,250.044,137.365,244.089,132.819,239.545z"/>
<g>
</g>
<g>
</g>
<g>
</g>
<g>
</g>
<g>
</g>
<g>
</g>
<g>
</g>
<g>
</g>
<g>
</g>
<g>
</g>
<g>
</g>
<g>
</g>
<g>
</g>
<g>
</g>
<g>
</g>
</svg>
