<?xml version="1.0" encoding="UTF-8"?><!DOCTYPE svg PUBLIC "-//W3C//DTD SVG 1.1//EN" "http://www.w3.org/Graphics/SVG/1.1/DTD/svg11.dtd"><svg xmlns="http://www.w3.org/2000/svg" xmlns:xlink="http://www.w3.org/1999/xlink" version="1.1" x="0px" y="0px" viewBox="0 0 64 64" xml:space="preserve"><g id="object"><path fill="#399BB9" d="M3 24.043V58.5c0 .577.248 1.093.639 1.458l21.238-18.006L3 24.043z"/><path fill="#399BB9" d="M60.412 59.912l-21.289-17.96-5.856 4.794a2 2 0 0 1-2.534 0l-5.856-4.794L3.639 59.958c.357.334.834.542 1.361.542h54a2 2 0 0 0 2-2V24.043L39.123 41.952l21.289 17.96z"/><path fill="#F15439" d="M43 25.5v-8h6l-12-14-12 14h6v8z"/><path fill="#F15439" d="M31 29.5h12v4H31z"/><path d="M44 26.5H30v-8h-7.174L37 1.963 51.174 18.5H44v8zm-12-2h10v-8h4.826L37 5.037 27.174 16.5H32v8z"/><path d="M59 61.5H5c-1.654 0-3-1.346-3-3v-35c0-1.654 1.346-3 3-3h26v2H5c-.551 0-1 .449-1 1v35c0 .551.449 1 1 1h54c.551 0 1-.449 1-1v-35c0-.551-.449-1-1-1H43v-2h16c1.654 0 3 1.346 3 3v35c0 1.654-1.346 3-3 3z"/><path d="M32 48.195c-.675 0-1.35-.225-1.9-.675L2.367 24.817l1.267-1.548 27.733 22.702c.367.301.9.3 1.268 0L60.367 23.27l1.267 1.548L33.9 47.52c-.55.45-1.225.675-1.9.675z"/><path transform="matrix(0.6466 0.7628 -0.7628 0.6466 43.8911 7.067)" d="M13.319 36.9h2v28.008h-2z"/><path transform="matrix(0.7643 0.6448 -0.6448 0.7643 44.5228 -20.0608)" d="M35.699 49.88h28.014v2H35.699z"/><path d="M44 34.5H30v-6h14v6zm-12-2h10v-2H32v2z"/></g><metadata><rdf:RDF xmlns:rdf="http://www.w3.org/1999/02/22-rdf-syntax-ns#" xmlns:rdfs="http://www.w3.org/2000/01/rdf-schema#" xmlns:dc="http://purl.org/dc/elements/1.1/"><rdf:Description about="https://iconscout.com/legal#licenses" dc:title="email-internet-connection-network-computer-send-arrow" dc:description="email-internet-connection-network-computer-send-arrow" dc:publisher="Iconscout" dc:date="2018-01-27" dc:format="image/svg+xml" dc:language="en"><dc:creator><rdf:Bag><rdf:li>Petai Jantrapoon</rdf:li></rdf:Bag></dc:creator></rdf:Description></rdf:RDF></metadata></svg>