<?xml version="1.0" encoding="iso-8859-1"?>
<!-- Generator: Adobe Illustrator 19.0.0, SVG Export Plug-In . SVG Version: 6.00 Build 0)  -->
<svg version="1.1" id="Layer_1" xmlns="http://www.w3.org/2000/svg" xmlns:xlink="http://www.w3.org/1999/xlink" x="0px" y="0px"
	 viewBox="0 0 512 512" style="enable-background:new 0 0 512 512;" xml:space="preserve">
<path style="fill:#A9A8AE;" d="M256.002,465.455c-31.081,0-60.304-12.102-82.281-34.081c-21.979-21.979-34.082-51.2-34.082-82.283
	l-0.003-232.731c0-12.853-10.42-23.273-23.273-23.271c-12.853,0-23.273,10.42-23.273,23.273l0.003,232.728
	c-0.002,43.515,16.944,84.425,47.714,115.197c30.77,30.771,71.68,47.715,115.195,47.714c89.825,0,162.906-73.081,162.909-162.909
	V116.36C418.909,52.199,366.706,0,302.544,0c-0.002,0,0,0-0.003,0c-31.077,0-60.298,12.103-82.275,34.08
	c-21.979,21.979-34.082,51.2-34.084,82.281v209.46c0,38.496,31.319,69.816,69.82,69.818c38.498-0.002,69.816-31.323,69.816-69.821
	V204.953c0-12.853-10.42-23.273-23.273-23.273c-12.853,0-23.273,10.42-23.273,23.273v120.866c0,12.833-10.442,23.274-23.271,23.276
	c-12.833,0-23.274-10.442-23.274-23.273v-209.46c0-18.649,7.264-36.181,20.45-49.369c13.188-13.186,30.718-20.447,49.366-20.447
	c38.499,0,69.82,31.319,69.821,69.815v232.73C372.362,413.254,320.163,465.455,256.002,465.455z"/>
<path style="fill:#6E76E5;" d="M302.545,0c-0.002,0,0,0-0.003,0c-16.286,0-32.05,3.354-46.541,9.681
	c-13.161,5.747-25.276,13.939-35.734,24.399c-21.979,21.979-34.082,51.2-34.084,82.281V325.82c0,38.496,31.319,69.816,69.818,69.818
	h0.002c38.498-0.002,69.816-31.323,69.816-69.821V204.951c0-12.853-10.42-23.273-23.273-23.273
	c-12.853,0-23.273,10.42-23.273,23.273v120.866c0,12.833-10.44,23.274-23.271,23.276h-0.002
	c-12.833-0.002-23.273-10.442-23.273-23.273V116.363c0-18.649,7.264-36.181,20.45-49.369c0.918-0.918,1.863-1.801,2.822-2.661
	c12.817-11.497,29.193-17.788,46.544-17.788c38.498,0,69.82,31.319,69.821,69.815v232.73
	c-0.003,64.163-52.202,116.363-116.363,116.363h-0.002c-31.081,0-60.303-12.103-82.28-34.08
	c-21.979-21.979-34.082-51.2-34.082-82.283l-0.003-232.728c0-12.853-10.42-23.273-23.273-23.273s-23.273,10.42-23.273,23.273
	l0.003,232.728c-0.003,43.515,16.942,84.427,47.712,115.197S212.485,512.002,256,512h0.002c89.825,0,162.906-73.081,162.909-162.909
	V116.36C418.909,52.199,366.706,0,302.545,0z"/>
<path style="fill:#5286FA;" d="M325.82,325.819V204.953c0-12.853-10.42-23.273-23.273-23.273c-12.853,0-23.273,10.42-23.273,23.273
	v120.866c0,12.833-10.44,23.274-23.271,23.276h-0.002v46.545h0.002C294.499,395.637,325.82,364.316,325.82,325.819z"/>
<path style="fill:#3D6DEB;" d="M186.184,116.362V325.82c0,38.496,31.319,69.816,69.818,69.818v-46.545
	c-12.833-0.002-23.273-10.442-23.273-23.273V116.363c0-18.649,7.264-36.181,20.45-49.369c0.918-0.918,1.863-1.801,2.822-2.661V9.681
	c-13.161,5.747-25.276,13.939-35.734,24.399C198.287,56.059,186.184,85.28,186.184,116.362z"/>
<path style="fill:#424EDE;" d="M173.72,431.374c-21.979-21.979-34.082-51.2-34.082-82.283l-0.002-232.73
	c0-12.853-10.42-23.273-23.273-23.273s-23.273,10.42-23.273,23.273l0.003,232.728c-0.003,43.515,16.942,84.427,47.712,115.197
	S212.485,512.002,256,512v-46.545C224.92,465.455,195.697,453.351,173.72,431.374z"/>
<g>
</g>
<g>
</g>
<g>
</g>
<g>
</g>
<g>
</g>
<g>
</g>
<g>
</g>
<g>
</g>
<g>
</g>
<g>
</g>
<g>
</g>
<g>
</g>
<g>
</g>
<g>
</g>
<g>
</g>
</svg>
