<?xml version="1.0" encoding="iso-8859-1"?>
<!-- Generator: Adobe Illustrator 19.0.0, SVG Export Plug-In . SVG Version: 6.00 Build 0)  -->
<svg version="1.1" id="Layer_1" xmlns="http://www.w3.org/2000/svg" xmlns:xlink="http://www.w3.org/1999/xlink" x="0px" y="0px"
	 viewBox="0 0 511.999 511.999" style="enable-background:new 0 0 511.999 511.999;" xml:space="preserve">
<path style="fill:#BDFDFF;" d="M392.449,313.014c-6.777-2.508-14.098-3.882-21.736-3.882s-14.959,1.375-21.736,3.882
	c-23.943,8.862-41.058,31.924-41.058,58.91s17.115,50.048,41.058,58.91c6.777,2.507,14.098,3.882,21.736,3.882
	c7.637,0,14.959-1.375,21.736-3.882c23.943-8.862,41.058-31.924,41.058-58.91S416.394,321.876,392.449,313.014z"/>
<path style="fill:#9BC9FF;" d="M504.428,474.894l-44.831-44.83c10.972-16.719,17.381-36.69,17.381-58.141
	c0-51.147-36.324-93.961-84.529-104.022c-7.021-1.465-14.288-2.243-21.736-2.243c-7.448,0-14.715,0.778-21.736,2.243
	c-48.206,10.059-84.529,52.875-84.529,104.022c0,23.476,7.665,45.187,20.608,62.792c6.045,8.225,13.243,15.548,21.356,21.736
	c17.867,13.623,40.149,21.736,64.3,21.736c21.452,0,41.424-6.409,58.145-17.386l44.831,44.831c4.244,4.244,9.807,6.366,15.37,6.366
	c5.563,0,11.126-2.121,15.369-6.367C512.917,497.146,512.917,483.384,504.428,474.894z M392.449,430.835
	c-6.777,2.507-14.098,3.882-21.736,3.882s-14.959-1.375-21.736-3.882c-23.943-8.862-41.058-31.924-41.058-58.91
	s17.115-50.048,41.058-58.91c6.777-2.508,14.098-3.882,21.736-3.882c7.637,0,14.959,1.375,21.736,3.882
	c23.943,8.862,41.058,31.924,41.058,58.91S416.394,421.973,392.449,430.835z"/>
<path style="fill:#E0E0E2;" d="M285.057,434.717c-12.943-17.605-20.608-39.317-20.608-62.792c0-51.147,36.324-93.961,84.529-104.022
	c7.021-1.465,14.288-2.243,21.736-2.243c7.448,0,14.715,0.778,21.736,2.243v-86.771c0-0.11-0.016-0.216-0.016-0.326
	c0.042,2.908-0.481,5.848-1.639,8.644c-3.365,8.122-11.29,13.418-20.081,13.418h-21.736h-137.66c-1.501,0-2.965-0.152-4.379-0.442
	c-0.558-0.114-1.104-0.256-1.645-0.413c-0.161-0.046-0.32-0.097-0.481-0.148c-0.396-0.125-0.787-0.259-1.172-0.404
	c-0.155-0.058-0.31-0.116-0.462-0.177c-0.513-0.207-1.022-0.427-1.514-0.672c-0.006-0.003-0.01-0.006-0.016-0.009
	c-0.503-0.249-0.991-0.523-1.471-0.81c-0.152-0.091-0.301-0.19-0.452-0.285c-0.329-0.207-0.651-0.422-0.967-0.645
	c-0.165-0.117-0.329-0.239-0.491-0.361c-0.3-0.226-0.591-0.459-0.88-0.7c-0.148-0.123-0.296-0.243-0.441-0.371
	c-0.335-0.296-0.659-0.604-0.975-0.919c-0.081-0.08-0.165-0.155-0.243-0.236c-0.388-0.398-0.758-0.813-1.116-1.242
	c-0.101-0.12-0.196-0.249-0.294-0.372c-0.252-0.316-0.498-0.636-0.732-0.967c-0.116-0.164-0.226-0.329-0.338-0.496
	c-0.207-0.309-0.404-0.623-0.597-0.943c-0.103-0.174-0.207-0.346-0.306-0.523c-0.199-0.355-0.385-0.717-0.564-1.085
	c-0.071-0.143-0.145-0.283-0.212-0.427c-0.236-0.513-0.455-1.033-0.651-1.566c-0.039-0.106-0.071-0.214-0.107-0.322
	c-0.152-0.432-0.293-0.869-0.417-1.314c-0.054-0.19-0.099-0.381-0.148-0.572c-0.096-0.375-0.18-0.755-0.255-1.138
	c-0.041-0.206-0.078-0.413-0.112-0.62c-0.067-0.398-0.119-0.801-0.161-1.206c-0.02-0.187-0.045-0.371-0.061-0.559
	c-0.048-0.591-0.08-1.187-0.08-1.791V43.472V21.736c0-8.791,5.295-16.718,13.418-20.081c2.801-1.159,5.747-1.684,8.661-1.637
	C211.546,0.016,211.433,0,211.317,0H22.94C10.936,0,1.204,9.73,1.204,21.736v434.717c0,12.005,9.732,21.736,21.736,21.736h347.774
	c-24.151,0-46.434-8.113-64.3-21.736C298.3,450.266,291.102,442.942,285.057,434.717z"/>
<path style="fill:#C6C5CA;" d="M189.581,21.736v21.736v137.661c0,0.603,0.03,1.2,0.08,1.791c0.016,0.187,0.041,0.372,0.061,0.559
	c0.042,0.404,0.094,0.807,0.161,1.206c0.033,0.209,0.071,0.414,0.112,0.62c0.075,0.383,0.159,0.762,0.255,1.138
	c0.048,0.191,0.093,0.384,0.148,0.572c0.125,0.445,0.265,0.881,0.417,1.314c0.036,0.107,0.068,0.216,0.107,0.322
	c0.196,0.533,0.414,1.053,0.651,1.566c0.067,0.145,0.142,0.284,0.212,0.427c0.178,0.367,0.365,0.729,0.564,1.085
	c0.099,0.177,0.203,0.349,0.306,0.523c0.193,0.32,0.391,0.635,0.597,0.943c0.112,0.167,0.222,0.333,0.338,0.496
	c0.233,0.33,0.48,0.651,0.732,0.967c0.099,0.123,0.193,0.252,0.294,0.372c0.356,0.427,0.727,0.843,1.116,1.242
	c0.078,0.081,0.162,0.155,0.243,0.236c0.316,0.316,0.639,0.623,0.975,0.919c0.145,0.128,0.293,0.248,0.441,0.371
	c0.288,0.241,0.58,0.475,0.88,0.7c0.162,0.122,0.326,0.243,0.491,0.361c0.316,0.223,0.638,0.438,0.967,0.645
	c0.151,0.094,0.298,0.194,0.452,0.285c0.48,0.287,0.968,0.561,1.471,0.81c0.003,0.003,0.006,0.004,0.01,0.006
	c0,0,0.004,0.001,0.006,0.003c0.494,0.245,1.001,0.465,1.514,0.672c0.151,0.062,0.307,0.119,0.462,0.177
	c0.385,0.146,0.775,0.28,1.172,0.404c0.161,0.051,0.32,0.101,0.481,0.148c0.54,0.157,1.087,0.299,1.645,0.413
	c1.416,0.29,2.878,0.442,4.379,0.442h137.661h21.736c8.791,0,16.716-5.296,20.081-13.418c1.158-2.795,1.681-5.735,1.639-8.644
	c-0.009-0.516-0.035-1.026-0.08-1.533c-0.016-0.191-0.029-0.383-0.049-0.574c-0.07-0.62-0.159-1.235-0.28-1.837
	c-0.038-0.193-0.093-0.384-0.138-0.575c-0.096-0.423-0.201-0.843-0.323-1.258c-0.077-0.259-0.158-0.516-0.243-0.772
	c-0.122-0.365-0.255-0.726-0.396-1.082c-0.091-0.23-0.175-0.462-0.274-0.688c-0.236-0.545-0.493-1.081-0.771-1.601
	c-0.091-0.168-0.193-0.33-0.285-0.496c-0.223-0.391-0.455-0.777-0.7-1.151c-0.122-0.185-0.249-0.37-0.377-0.552
	c-0.254-0.364-0.519-0.716-0.794-1.062c-0.122-0.152-0.241-0.309-0.367-0.459c-0.403-0.481-0.825-0.953-1.275-1.403L226.687,6.366
	c-0.451-0.452-0.926-0.874-1.408-1.28c-0.145-0.12-0.293-0.235-0.441-0.351c-0.354-0.283-0.716-0.554-1.087-0.814
	c-0.175-0.122-0.351-0.243-0.529-0.361c-0.388-0.255-0.787-0.494-1.191-0.725c-0.152-0.087-0.303-0.181-0.458-0.265
	c-0.526-0.283-1.066-0.54-1.617-0.78c-0.219-0.094-0.443-0.177-0.664-0.264c-0.365-0.143-0.733-0.28-1.107-0.404
	c-0.252-0.084-0.506-0.165-0.761-0.241c-0.416-0.122-0.838-0.228-1.265-0.325c-0.191-0.043-0.38-0.097-0.572-0.136
	c-0.603-0.12-1.214-0.21-1.833-0.28c-0.197-0.022-0.393-0.035-0.59-0.052c-0.497-0.042-0.998-0.068-1.504-0.077
	c-2.914-0.046-5.86,0.478-8.661,1.637C194.878,5.018,189.581,12.944,189.581,21.736z"/>
<g>
	<path style="fill:#A9A8AE;" d="M190.922,188.654c-0.039-0.106-0.071-0.214-0.107-0.322
		C190.851,188.44,190.883,188.549,190.922,188.654z"/>
	<path style="fill:#A9A8AE;" d="M189.996,185.308c-0.041-0.206-0.078-0.413-0.112-0.62
		C189.918,184.895,189.954,185.103,189.996,185.308z"/>
	<path style="fill:#A9A8AE;" d="M190.397,187.02c-0.054-0.19-0.099-0.383-0.148-0.572
		C190.299,186.637,190.344,186.83,190.397,187.02z"/>
	<path style="fill:#A9A8AE;" d="M191.785,190.648c-0.071-0.143-0.145-0.283-0.212-0.427
		C191.639,190.367,191.714,190.506,191.785,190.648z"/>
	<path style="fill:#A9A8AE;" d="M197.389,197.802c-0.148-0.123-0.296-0.243-0.441-0.371
		C197.093,197.559,197.243,197.679,197.389,197.802z"/>
	<path style="fill:#A9A8AE;" d="M192.655,192.257c-0.103-0.174-0.207-0.346-0.306-0.523
		C192.448,191.91,192.55,192.083,192.655,192.257z"/>
	<path style="fill:#A9A8AE;" d="M189.722,183.483c-0.02-0.187-0.045-0.371-0.061-0.559
		C189.677,183.11,189.702,183.296,189.722,183.483z"/>
	<polygon style="fill:#A9A8AE;" points="201.649,200.603 201.664,200.612 201.659,200.609 	"/>
	<path style="fill:#A9A8AE;" d="M194.615,195.036c-0.101-0.12-0.196-0.249-0.294-0.372
		C194.42,194.787,194.514,194.914,194.615,195.036z"/>
	<path style="fill:#A9A8AE;" d="M200.178,199.793c-0.152-0.091-0.301-0.19-0.452-0.285
		C199.877,199.603,200.025,199.702,200.178,199.793z"/>
	<path style="fill:#A9A8AE;" d="M195.975,196.513c-0.081-0.08-0.165-0.155-0.243-0.236
		C195.808,196.357,195.893,196.433,195.975,196.513z"/>
	<path style="fill:#A9A8AE;" d="M203.642,201.461c-0.155-0.058-0.312-0.116-0.462-0.177
		C203.331,201.347,203.485,201.403,203.642,201.461z"/>
	<path style="fill:#A9A8AE;" d="M198.76,198.863c-0.165-0.117-0.329-0.239-0.491-0.361
		C198.432,198.625,198.594,198.746,198.76,198.863z"/>
	<path style="fill:#A9A8AE;" d="M205.293,202.015c-0.161-0.046-0.32-0.097-0.481-0.148
		C204.975,201.916,205.133,201.968,205.293,202.015z"/>
	<path style="fill:#A9A8AE;" d="M193.589,193.696c-0.116-0.162-0.226-0.33-0.338-0.496
		C193.363,193.367,193.474,193.532,193.589,193.696z"/>
</g>
<g>
</g>
<g>
</g>
<g>
</g>
<g>
</g>
<g>
</g>
<g>
</g>
<g>
</g>
<g>
</g>
<g>
</g>
<g>
</g>
<g>
</g>
<g>
</g>
<g>
</g>
<g>
</g>
<g>
</g>
</svg>
