<?xml version="1.0" encoding="iso-8859-1"?>
<!-- Generator: Adobe Illustrator 19.0.0, SVG Export Plug-In . SVG Version: 6.00 Build 0)  -->
<svg version="1.1" id="Layer_1" xmlns="http://www.w3.org/2000/svg" xmlns:xlink="http://www.w3.org/1999/xlink" x="0px" y="0px"
	 viewBox="0 0 512 512" style="enable-background:new 0 0 512 512;" xml:space="preserve">
<g>
	<polygon style="fill:#00E7F0;" points="128,465.455 128,477.091 384,477.091 384,465.455 384,329.695 128,329.695 	"/>
	<polygon style="fill:#00E7F0;" points="306.424,46.545 306.424,34.909 128,34.909 128,46.545 128,182.301 306.424,182.301 	"/>
</g>
<path style="fill:#77757F;" d="M380.639,6.817c-4.364-4.364-10.283-6.816-16.457-6.816H23.273C10.42,0.002,0,10.422,0,23.274
	v465.453C0,501.58,10.42,512,23.273,512h465.455C501.58,512,512,501.58,512,488.727v-340.91c0-6.172-2.451-12.091-6.817-16.455
	L380.639,6.817z M128,46.545V34.909h178.424v11.636v135.756H128V46.545z M384,465.455v11.636H128v-11.636V329.697h256V465.455z"/>
<g>
	<polygon style="fill:#00D7DF;" points="128,465.455 128,477.091 256,477.091 256,329.697 128,329.697 	"/>
	<polygon style="fill:#00D7DF;" points="128,46.545 128,182.303 256,182.303 256,34.909 128,34.909 	"/>
</g>
<path style="fill:#57575C;" d="M128,477.091v-11.636V329.697h128V182.303H128V46.545V34.909h128V0H23.273C10.42,0,0,10.42,0,23.273
	v465.455C0,501.58,10.42,512,23.273,512H256v-34.909H128z"/>
<g>
</g>
<g>
</g>
<g>
</g>
<g>
</g>
<g>
</g>
<g>
</g>
<g>
</g>
<g>
</g>
<g>
</g>
<g>
</g>
<g>
</g>
<g>
</g>
<g>
</g>
<g>
</g>
<g>
</g>
</svg>
