<?xml version="1.0" encoding="iso-8859-1"?>
<!-- Generator: Adobe Illustrator 19.0.0, SVG Export Plug-In . SVG Version: 6.00 Build 0)  -->
<svg version="1.1" id="Layer_1" xmlns="http://www.w3.org/2000/svg" xmlns:xlink="http://www.w3.org/1999/xlink" x="0px" y="0px"
	 viewBox="0 0 512 512" style="enable-background:new 0 0 512 512;" xml:space="preserve">
<path style="fill:#A9A8AE;" d="M205.265,307.51c4.672,4.672,8.887,9.675,12.674,14.932L256,266.196l38.06,56.246
	c3.787-5.257,8.003-10.26,12.674-14.932c6.65-6.65,13.959-12.398,21.752-17.241L284.1,224.673L411.033,37.092
	c7.204-10.643,4.414-25.113-6.232-32.317c-10.64-7.204-25.113-4.416-32.317,6.232L256,183.146L139.516,11.006
	c-7.204-10.645-21.673-13.436-32.317-6.232c-10.645,7.204-13.435,21.673-6.232,32.317L227.9,224.671l-44.388,65.595
	C191.306,295.112,198.615,300.86,205.265,307.51z"/>
<path style="fill:#77757F;" d="M139.516,11.006c-7.204-10.645-21.673-13.436-32.317-6.232c-10.645,7.204-13.435,21.673-6.232,32.317
	L227.9,224.671l-44.388,65.595c7.793,4.844,15.103,10.592,21.754,17.242c4.672,4.672,8.886,9.675,12.674,14.932l38.06-56.246
	v-83.052L139.516,11.006z"/>
<path style="fill:#B87FD9;" d="M294.06,320.891c-14.626,20.299-22.544,44.582-22.544,70.093c0,32.118,12.505,62.314,35.218,85.027
	c22.711,22.71,52.907,35.216,85.025,35.216c32.117,0,62.312-12.508,85.022-35.218C499.495,453.298,512,423.102,512,390.984
	c0-32.118-12.507-62.314-35.218-85.025c-22.71-22.711-52.905-35.218-85.022-35.218c-22.713,0-44.45,6.282-63.271,17.978
	c-7.793,4.842-15.103,10.591-21.752,17.241C302.065,310.63,297.849,315.634,294.06,320.891z M339.647,338.873
	c13.92-13.92,32.427-21.586,52.113-21.586c19.684,0,38.189,7.665,52.109,21.585c28.736,28.736,28.736,75.489,0,104.225
	c-13.92,13.92-32.424,21.585-52.109,21.585c-19.686,0-38.192-7.666-52.113-21.585C310.913,414.361,310.913,367.605,339.647,338.873z
	"/>
<path style="fill:#933EC5;" d="M35.218,305.959C12.507,328.67,0,358.866,0,390.984c0,32.118,12.507,62.314,35.218,85.025
	s52.905,35.218,85.024,35.218s62.312-12.508,85.024-35.218c22.713-22.711,35.218-52.907,35.218-85.025
	c0-25.51-7.917-49.795-22.544-70.093c-3.789-5.257-8.003-10.26-12.674-14.932c-6.65-6.65-13.959-12.398-21.754-17.242
	c-18.822-11.694-40.558-17.976-63.27-17.976C88.123,270.741,57.929,283.247,35.218,305.959z M172.353,443.096
	c-13.92,13.92-32.425,21.585-52.111,21.585s-38.191-7.665-52.111-21.585c-28.736-28.736-28.736-75.489,0-104.225
	c13.92-13.92,32.425-21.585,52.111-21.585c19.684,0,38.191,7.665,52.111,21.585C201.087,367.605,201.087,414.361,172.353,443.096z"
	/>
<g>
</g>
<g>
</g>
<g>
</g>
<g>
</g>
<g>
</g>
<g>
</g>
<g>
</g>
<g>
</g>
<g>
</g>
<g>
</g>
<g>
</g>
<g>
</g>
<g>
</g>
<g>
</g>
<g>
</g>
</svg>
