<?xml version="1.0" encoding="iso-8859-1"?>
<!-- Generator: Adobe Illustrator 19.0.0, SVG Export Plug-In . SVG Version: 6.00 Build 0)  -->
<svg version="1.1" id="Layer_1" xmlns="http://www.w3.org/2000/svg" xmlns:xlink="http://www.w3.org/1999/xlink" x="0px" y="0px"
	 viewBox="0 0 512 512" style="enable-background:new 0 0 512 512;" xml:space="preserve">
<path style="fill:#B87FD9;" d="M488.727,46.545H23.273C10.42,46.545,0,56.965,0,69.818v93.091V256v93.091v93.091
	c0,12.853,10.42,23.273,23.273,23.273h155.152h155.152h155.152c12.853,0,23.273-10.42,23.273-23.273v-93.091V256v-93.091V69.818
	C512,56.965,501.58,46.545,488.727,46.545z M155.152,418.909H46.545v-46.545h108.606V418.909z M155.152,325.818H46.545v-46.545
	h108.606V325.818z M155.152,232.727H46.545v-46.545h108.606V232.727z M310.303,418.909H201.697v-46.545h108.606V418.909z
	 M310.303,325.818H201.697v-46.545h108.606V325.818z M310.303,232.727H201.697v-46.545h108.606V232.727z M465.455,418.909H356.848
	v-46.545h108.606V418.909z M465.455,325.818H356.848v-46.545h108.606V325.818z M465.455,232.727H356.848v-46.545h108.606V232.727z"
	/>
<path style="fill:#6E76E5;" d="M488.727,46.545H23.273C10.42,46.545,0,56.965,0,69.818v93.091c0,12.853,10.42,23.273,23.273,23.273
	h23.273h108.606h46.545h108.606h46.545h108.606h23.273c12.853,0,23.273-10.42,23.273-23.273V69.818
	C512,56.965,501.58,46.545,488.727,46.545z"/>
<path style="fill:#424EDE;" d="M23.273,46.545C10.42,46.545,0,56.965,0,69.818v93.091c0,12.853,10.42,23.273,23.273,23.273h23.273
	h108.606h46.545H256V46.545H23.273z"/>
<path style="fill:#933EC5;" d="M201.697,418.909v-46.545H256v-46.545h-54.303v-46.545H256v-46.545h-54.303v-46.545h-46.545v46.545
	H46.545v-46.545H23.273C10.42,186.182,0,175.762,0,162.909V256v93.091v93.091c0,12.853,10.42,23.273,23.273,23.273h155.152H256
	v-46.545H201.697z M155.152,418.909H46.545v-46.545h108.606V418.909z M155.152,325.818H46.545v-46.545h108.606V325.818z"/>
<g>
</g>
<g>
</g>
<g>
</g>
<g>
</g>
<g>
</g>
<g>
</g>
<g>
</g>
<g>
</g>
<g>
</g>
<g>
</g>
<g>
</g>
<g>
</g>
<g>
</g>
<g>
</g>
<g>
</g>
</svg>
