<?xml version="1.0" encoding="iso-8859-1"?>
<!-- Generator: Adobe Illustrator 19.0.0, SVG Export Plug-In . SVG Version: 6.00 Build 0)  -->
<svg version="1.1" id="Layer_1" xmlns="http://www.w3.org/2000/svg" xmlns:xlink="http://www.w3.org/1999/xlink" x="0px" y="0px"
	 viewBox="0 0 512 512" style="enable-background:new 0 0 512 512;" xml:space="preserve">
<path style="fill:#A9A8AE;" d="M272.455,481.913c-4.364,4.363-10.282,6.814-16.455,6.814h232.727
	c12.851,0,23.273-10.42,23.273-23.273c0-12.853-10.422-23.273-23.273-23.273H312.185l-23.273,23.273L272.455,481.913z"/>
<path style="fill:#FFB655;" d="M151.437,197.652l16.457,16.457l153.27,153.271l16.454,16.454c9.09,9.09,9.09,23.823,0,32.915
	l167.564-167.564c9.09-9.09,9.09-23.824,0-32.915L318.999,30.088c-9.087-9.087-23.823-9.087-32.912,0L118.523,197.652
	C127.612,188.565,142.348,188.565,151.437,197.652z"/>
<path style="fill:#6E76E5;" d="M337.619,383.834l-16.455-16.454l-153.27-153.271l-16.457-16.457c-9.087-9.087-23.824-9.087-32.912,0
	L6.815,309.361c-9.087,9.09-9.087,23.824,0,32.915l139.636,139.636c0.039,0.039,0.085,0.073,0.124,0.11
	c0.503,0.495,1.021,0.97,1.561,1.413c0.163,0.133,0.34,0.248,0.506,0.379c0.436,0.338,0.869,0.675,1.325,0.982
	c0.146,0.095,0.299,0.175,0.448,0.27c0.493,0.315,0.995,0.627,1.513,0.906c0.102,0.054,0.216,0.099,0.321,0.155
	c0.569,0.295,1.145,0.576,1.739,0.821c0.07,0.031,0.143,0.05,0.213,0.079c0.633,0.254,1.272,0.49,1.927,0.689
	c0.076,0.023,0.152,0.036,0.227,0.059c0.649,0.191,1.306,0.36,1.972,0.495c0.188,0.037,0.385,0.054,0.573,0.087
	c0.56,0.099,1.119,0.196,1.685,0.251c0.763,0.076,1.539,0.118,2.324,0.118H256c6.173,0,12.091-2.451,16.454-6.816l16.458-16.457
	l23.273-23.273l25.434-25.434C346.709,407.657,346.709,392.924,337.619,383.834z"/>
<path style="fill:#EE8700;" d="M286.088,30.088L118.525,197.652c9.087-9.087,23.824-9.087,32.912,0l16.457,16.457l76.682,76.682
	l167.564-167.564L319,30.088C309.913,21.001,295.175,21.001,286.088,30.088z"/>
<path style="fill:#424EDE;" d="M167.894,214.109l-16.457-16.457c-9.087-9.087-23.824-9.087-32.912,0L6.815,309.361
	c-9.087,9.09-9.087,23.824,0,32.915l93.139,93.139l144.623-144.623L167.894,214.109z"/>
<g>
</g>
<g>
</g>
<g>
</g>
<g>
</g>
<g>
</g>
<g>
</g>
<g>
</g>
<g>
</g>
<g>
</g>
<g>
</g>
<g>
</g>
<g>
</g>
<g>
</g>
<g>
</g>
<g>
</g>
</svg>
