<?xml version="1.0" encoding="iso-8859-1"?>
<!-- Generator: Adobe Illustrator 19.0.0, SVG Export Plug-In . SVG Version: 6.00 Build 0)  -->
<svg version="1.1" id="Layer_1" xmlns="http://www.w3.org/2000/svg" xmlns:xlink="http://www.w3.org/1999/xlink" x="0px" y="0px"
	 viewBox="0 0 512 512" style="enable-background:new 0 0 512 512;" xml:space="preserve">
<g>
	<path style="fill:#00D7DF;" d="M23.272,93.096c6.128,0,12.133-2.496,16.461-6.827c4.329-4.329,6.811-10.333,6.811-16.446
		c0-6.127-2.482-12.131-6.811-16.46s-10.333-6.813-16.461-6.813c-6.114,0-12.117,2.484-16.446,6.813C2.498,57.693,0,63.697,0,69.824
		c0,6.113,2.498,12.117,6.827,16.446C11.155,90.6,17.158,93.096,23.272,93.096z"/>
	<path style="fill:#00D7DF;" d="M23.272,186.172c6.128,0,12.133-2.482,16.461-6.811s6.811-10.333,6.811-16.461
		c0-6.111-2.482-12.117-6.811-16.446s-10.333-6.827-16.461-6.827c-6.114,0-12.117,2.498-16.446,6.827S0,156.787,0,162.9
		c0,6.128,2.498,12.133,6.827,16.461C11.155,183.69,17.144,186.172,23.272,186.172z"/>
	<path style="fill:#00D7DF;" d="M23.272,279.262c6.128,0,12.133-2.482,16.461-6.811c4.329-4.329,6.811-10.333,6.811-16.461
		c0-6.111-2.482-12.117-6.811-16.446c-4.329-4.329-10.333-6.827-16.461-6.827c-6.114,0-12.117,2.498-16.446,6.827
		C2.498,243.872,0,249.876,0,255.989c0,6.128,2.498,12.133,6.827,16.461S17.144,279.262,23.272,279.262z"/>
	<path style="fill:#00D7DF;" d="M23.272,465.454c6.128,0,12.133-2.496,16.461-6.825c4.329-4.329,6.811-10.333,6.811-16.447
		c0-6.127-2.482-12.131-6.811-16.46s-10.333-6.813-16.461-6.813s-12.117,2.484-16.446,6.813C2.498,430.051,0,436.055,0,442.182
		c0,6.113,2.498,12.119,6.827,16.447C11.155,462.958,17.158,465.454,23.272,465.454z"/>
	<path style="fill:#00D7DF;" d="M23.272,372.365c6.128,0,12.133-2.496,16.461-6.827c4.329-4.329,6.811-10.333,6.811-16.446
		c0-6.127-2.482-12.131-6.811-16.46c-4.329-4.329-10.333-6.813-16.461-6.813s-12.117,2.482-16.446,6.813
		C2.498,336.961,0,342.966,0,349.093c0,6.113,2.498,12.119,6.827,16.446C11.155,369.869,17.158,372.365,23.272,372.365z"/>
</g>
<g>
	<path style="fill:#424EDE;" d="M488.728,46.546H116.37c-12.853,0-23.272,10.42-23.272,23.272s10.42,23.272,23.272,23.272h372.358
		C501.58,93.09,512,82.67,512,69.818S501.58,46.546,488.728,46.546z"/>
	<path style="fill:#424EDE;" d="M488.728,139.635H116.37c-12.853,0-23.272,10.42-23.272,23.272c0,12.853,10.42,23.272,23.272,23.272
		h372.358c12.853,0,23.272-10.42,23.272-23.272C512,150.055,501.58,139.635,488.728,139.635z"/>
	<path style="fill:#424EDE;" d="M488.728,232.725H116.37c-12.853,0-23.272,10.42-23.272,23.272s10.42,23.272,23.272,23.272h372.358
		c12.853,0,23.272-10.42,23.272-23.272S501.58,232.725,488.728,232.725z"/>
	<path style="fill:#424EDE;" d="M488.728,418.904H116.37c-12.853,0-23.272,10.42-23.272,23.272c0,12.853,10.42,23.272,23.272,23.272
		h372.358c12.853,0,23.272-10.42,23.272-23.272C512,429.323,501.58,418.904,488.728,418.904z"/>
	<path style="fill:#424EDE;" d="M488.728,325.814H116.37c-12.853,0-23.272,10.42-23.272,23.272s10.42,23.272,23.272,23.272h372.358
		c12.853,0,23.272-10.42,23.272-23.272S501.58,325.814,488.728,325.814z"/>
</g>
<g>
</g>
<g>
</g>
<g>
</g>
<g>
</g>
<g>
</g>
<g>
</g>
<g>
</g>
<g>
</g>
<g>
</g>
<g>
</g>
<g>
</g>
<g>
</g>
<g>
</g>
<g>
</g>
<g>
</g>
</svg>
