<?xml version="1.0" encoding="iso-8859-1"?>
<!-- Generator: Adobe Illustrator 19.0.0, SVG Export Plug-In . SVG Version: 6.00 Build 0)  -->
<svg version="1.1" id="Layer_1" xmlns="http://www.w3.org/2000/svg" xmlns:xlink="http://www.w3.org/1999/xlink" x="0px" y="0px"
	 viewBox="0 0 512.001 512.001" style="enable-background:new 0 0 512.001 512.001;" xml:space="preserve">
<path style="fill:#FF0C38;" d="M206.606,403.393c12.853,0,23.273-10.42,23.273-23.273c0-12.853-10.42-23.273-23.273-23.273h-35.939
	V155.151h77.576v37.219c0,12.853,10.42,23.273,23.273,23.273s23.273-10.42,23.273-23.273v-60.492
	c0-12.853-10.42-23.273-23.273-23.273H147.394H23.273C10.42,108.605,0,119.025,0,131.878v60.492
	c0,12.853,10.42,23.273,23.273,23.273s23.273-10.42,23.273-23.273v-37.219h77.576v201.697H88.183
	c-12.853,0-23.273,10.42-23.273,23.273c0,12.853,10.42,23.273,23.273,23.273h59.21H206.606z"/>
<path style="fill:#EE8700;" d="M488.732,213.332c5.688,0,11.39-2.073,15.875-6.259c9.398-8.769,9.905-23.498,1.134-32.892
	L451.438,116c-0.087-0.095-0.185-0.172-0.273-0.264c-0.307-0.318-0.627-0.619-0.95-0.918c-0.245-0.227-0.486-0.458-0.742-0.675
	c-0.352-0.298-0.717-0.574-1.083-0.85c-0.245-0.185-0.486-0.375-0.737-0.549c-0.427-0.295-0.869-0.562-1.313-0.829
	c-0.213-0.126-0.416-0.262-0.63-0.382c-0.54-0.299-1.097-0.568-1.657-0.824c-0.137-0.061-0.267-0.133-0.403-0.194
	c-0.684-0.293-1.386-0.555-2.095-0.785c-0.029-0.009-0.054-0.022-0.082-0.031c-0.557-0.177-1.126-0.334-1.702-0.47
	c-0.267-0.064-0.54-0.106-0.808-0.161c-0.315-0.062-0.625-0.133-0.943-0.183c-0.293-0.047-0.591-0.07-0.886-0.104
	c-0.299-0.034-0.597-0.082-0.898-0.104c-0.6-0.047-1.204-0.071-1.812-0.071s-1.212,0.025-1.814,0.071
	c-0.301,0.023-0.599,0.07-0.898,0.104c-0.296,0.034-0.593,0.057-0.886,0.104c-0.318,0.05-0.628,0.121-0.943,0.183
	c-0.268,0.054-0.541,0.098-0.807,0.161c-0.576,0.137-1.143,0.292-1.702,0.47c-0.028,0.009-0.053,0.022-0.082,0.031
	c-0.709,0.228-1.409,0.49-2.095,0.785c-0.137,0.061-0.267,0.133-0.403,0.194c-0.56,0.256-1.119,0.524-1.657,0.824
	c-0.216,0.119-0.419,0.256-0.63,0.382c-0.444,0.267-0.884,0.534-1.313,0.829c-0.251,0.174-0.49,0.365-0.737,0.549
	c-0.366,0.276-0.732,0.552-1.083,0.85c-0.254,0.217-0.495,0.447-0.742,0.675c-0.323,0.298-0.642,0.6-0.95,0.919
	c-0.088,0.092-0.186,0.169-0.273,0.264l-54.303,58.182c-8.769,9.396-8.262,24.123,1.134,32.892
	c9.394,8.769,24.121,8.262,32.892-1.134l14.016-15.019l0.003,130.16l-14.019-15.02c-8.771-9.399-23.498-9.903-32.892-1.134
	c-9.398,8.769-9.905,23.496-1.134,32.892L417.41,396c0.093,0.101,0.2,0.188,0.295,0.285c0.285,0.296,0.585,0.574,0.883,0.853
	c0.265,0.248,0.529,0.496,0.805,0.734c0.327,0.276,0.669,0.532,1.007,0.788c0.268,0.205,0.532,0.416,0.81,0.607
	c0.397,0.275,0.81,0.523,1.221,0.771c0.239,0.144,0.473,0.299,0.718,0.436c0.506,0.281,1.027,0.529,1.552,0.77
	c0.169,0.081,0.335,0.171,0.507,0.245c0.644,0.278,1.305,0.521,1.972,0.74c0.068,0.023,0.133,0.053,0.202,0.074
	c0.549,0.172,1.108,0.327,1.673,0.461c0.205,0.048,0.414,0.081,0.619,0.123c0.363,0.076,0.726,0.155,1.097,0.216
	c0.254,0.04,0.512,0.061,0.766,0.093c0.327,0.039,0.652,0.09,0.982,0.116c0.588,0.047,1.181,0.074,1.776,0.078
	c0.042,0,0.085,0.006,0.127,0.006c0,0,0,0,0.002,0c0.002,0,0.002,0,0.002,0c0.053,0,0.104-0.008,0.157-0.009
	c0.752-0.005,1.503-0.039,2.245-0.115c0.622-0.067,1.233-0.174,1.84-0.287c0.166-0.031,0.338-0.043,0.504-0.079
	c0.67-0.14,1.323-0.321,1.97-0.517c0.104-0.033,0.213-0.05,0.315-0.084c0.751-0.239,1.488-0.514,2.203-0.824
	c0.099-0.042,0.194-0.095,0.292-0.14c0.604-0.27,1.196-0.56,1.773-0.881c0.183-0.099,0.355-0.219,0.535-0.324
	c0.479-0.282,0.951-0.572,1.41-0.889c0.223-0.157,0.434-0.326,0.653-0.489c0.397-0.295,0.791-0.594,1.17-0.915
	c0.23-0.197,0.448-0.406,0.67-0.61c0.349-0.32,0.694-0.645,1.024-0.99c0.079-0.082,0.168-0.155,0.247-0.239l54.303-58.182
	c8.769-9.396,8.262-24.123-1.134-32.892c-9.394-8.769-24.123-8.262-32.892,1.134l-14.013,15.016l-0.001-130.158l14.016,15.017
	C476.297,210.85,482.506,213.332,488.732,213.332z"/>
<g>
</g>
<g>
</g>
<g>
</g>
<g>
</g>
<g>
</g>
<g>
</g>
<g>
</g>
<g>
</g>
<g>
</g>
<g>
</g>
<g>
</g>
<g>
</g>
<g>
</g>
<g>
</g>
<g>
</g>
</svg>
