<?xml version="1.0" encoding="iso-8859-1"?>
<!-- Generator: Adobe Illustrator 19.0.0, SVG Export Plug-In . SVG Version: 6.00 Build 0)  -->
<svg version="1.1" id="Layer_1" xmlns="http://www.w3.org/2000/svg" xmlns:xlink="http://www.w3.org/1999/xlink" x="0px" y="0px"
	 viewBox="0 0 512.001 512.001" style="enable-background:new 0 0 512.001 512.001;" xml:space="preserve">
<path style="fill:#FF0C38;" d="M131.878,0c-12.853,0-23.273,10.42-23.273,23.273v60.494c0,12.853,10.42,23.273,23.273,23.273
	c12.853,0,23.273-10.42,23.273-23.273V46.545h77.573v201.697h-35.936c-12.853,0-23.273,10.42-23.273,23.273
	s10.42,23.273,23.273,23.273h59.209h59.212c12.853,0,23.273-10.42,23.273-23.273s-10.42-23.273-23.273-23.273h-35.939V46.545h77.576
	v37.221c0,12.853,10.42,23.273,23.273,23.273c12.853,0,23.273-10.42,23.273-23.273V23.273C403.39,10.42,392.97,0,380.117,0H255.996
	H131.878z"/>
<path style="fill:#EE8700;" d="M304.925,504.605c4.583,4.912,10.792,7.395,17.019,7.395c5.688,0,11.39-2.073,15.875-6.259
	L396,451.438c0.092-0.085,0.169-0.18,0.258-0.268c0.324-0.312,0.631-0.638,0.937-0.967c0.222-0.239,0.445-0.476,0.658-0.725
	c0.303-0.355,0.585-0.728,0.864-1.1c0.18-0.24,0.366-0.475,0.54-0.721c0.296-0.431,0.569-0.878,0.838-1.328
	c0.123-0.206,0.256-0.405,0.372-0.614c0.303-0.548,0.574-1.109,0.833-1.679c0.059-0.129,0.129-0.253,0.185-0.383
	c0.298-0.689,0.562-1.392,0.791-2.107c0.008-0.025,0.019-0.045,0.026-0.07c0.177-0.557,0.334-1.125,0.47-1.7
	c0.074-0.312,0.124-0.63,0.186-0.945c0.051-0.27,0.113-0.534,0.158-0.807c0.051-0.334,0.081-0.672,0.118-1.007
	c0.029-0.259,0.071-0.517,0.092-0.777c0.047-0.604,0.071-1.207,0.071-1.815c0-0.608-0.025-1.213-0.071-1.815
	c-0.02-0.264-0.062-0.521-0.092-0.782c-0.037-0.337-0.067-0.673-0.118-1.004c-0.043-0.275-0.107-0.541-0.16-0.81
	c-0.061-0.313-0.112-0.63-0.185-0.939c-0.137-0.576-0.292-1.142-0.47-1.702c-0.006-0.02-0.016-0.037-0.022-0.056
	c-0.23-0.72-0.497-1.427-0.798-2.121c-0.054-0.126-0.121-0.245-0.177-0.369c-0.261-0.574-0.535-1.14-0.841-1.693
	c-0.113-0.206-0.245-0.4-0.365-0.602c-0.271-0.455-0.545-0.906-0.847-1.342c-0.168-0.242-0.354-0.473-0.531-0.711
	c-0.282-0.375-0.566-0.749-0.872-1.111c-0.211-0.245-0.433-0.479-0.653-0.717c-0.306-0.332-0.614-0.659-0.94-0.974
	c-0.09-0.085-0.164-0.182-0.256-0.265l-58.182-54.303c-9.394-8.771-24.121-8.262-32.892,1.134
	c-8.769,9.396-8.262,24.123,1.134,32.892l15.019,14.016l-130.161,0.003l15.022-14.02c9.398-8.769,9.905-23.498,1.134-32.892
	c-8.771-9.398-23.499-9.903-32.892-1.134l-58.182,54.303c-0.099,0.093-0.185,0.199-0.282,0.292
	c-0.299,0.289-0.582,0.591-0.866,0.894c-0.244,0.262-0.489,0.521-0.723,0.794c-0.279,0.331-0.537,0.675-0.797,1.018
	c-0.202,0.267-0.41,0.528-0.6,0.802c-0.276,0.4-0.526,0.815-0.776,1.23c-0.143,0.237-0.296,0.469-0.43,0.711
	c-0.282,0.509-0.534,1.033-0.776,1.561c-0.079,0.168-0.166,0.327-0.239,0.496c-0.279,0.645-0.523,1.306-0.743,1.977
	c-0.022,0.067-0.051,0.13-0.073,0.199c-0.174,0.548-0.327,1.106-0.461,1.671c-0.051,0.214-0.085,0.43-0.127,0.645
	c-0.074,0.355-0.155,0.711-0.213,1.072c-0.036,0.242-0.056,0.489-0.088,0.734c-0.042,0.34-0.092,0.673-0.119,1.015
	c-0.047,0.59-0.074,1.182-0.078,1.776c0,0.042-0.006,0.085-0.006,0.127c0,0,0,0,0,0.002v0.002c0,0.057,0.009,0.115,0.009,0.172
	c0.006,0.748,0.039,1.493,0.115,2.228c0.073,0.689,0.188,1.364,0.318,2.034c0.02,0.102,0.026,0.209,0.048,0.31
	c0.155,0.748,0.351,1.479,0.576,2.195c0.009,0.031,0.016,0.062,0.025,0.092c0.239,0.752,0.515,1.491,0.825,2.209
	c0.037,0.088,0.085,0.171,0.124,0.258c0.275,0.614,0.569,1.22,0.897,1.808c0.098,0.172,0.208,0.337,0.307,0.506
	c0.289,0.487,0.585,0.973,0.909,1.44c0.149,0.216,0.313,0.422,0.47,0.63c0.303,0.406,0.61,0.808,0.937,1.195
	c0.191,0.222,0.393,0.433,0.59,0.649c0.329,0.357,0.661,0.709,1.012,1.046c0.081,0.079,0.15,0.163,0.231,0.24l58.182,54.303
	c4.485,4.186,10.186,6.259,15.874,6.259c6.226,0,12.435-2.482,17.019-7.395c8.769-9.396,8.262-24.123-1.134-32.892l-15.016-14.013
	l130.157-0.005l-15.019,14.016C296.663,480.483,296.156,495.211,304.925,504.605z"/>
<g>
</g>
<g>
</g>
<g>
</g>
<g>
</g>
<g>
</g>
<g>
</g>
<g>
</g>
<g>
</g>
<g>
</g>
<g>
</g>
<g>
</g>
<g>
</g>
<g>
</g>
<g>
</g>
<g>
</g>
</svg>
